<svg width="133" height="133" viewBox="0 0 133 133" fill="none" xmlns="http://www.w3.org/2000/svg">
<ellipse cx="66.6587" cy="66.4275" rx="66.0918" ry="66.1375" fill="#F8F8F8"/>
<path fill-rule="evenodd" clip-rule="evenodd" d="M74.1602 31.1644C68.278 29.5414 62.0324 30.1737 56.539 32.9651C51.0391 35.7599 46.6239 40.5545 44.1502 46.5315C42.6379 50.1857 42.8835 53.7068 43.6211 56.1929C52.1669 55.4118 62.8097 55.4654 72.1188 55.9037C77.5288 56.1585 82.5895 56.5481 86.6564 57.0018C90.4617 57.4263 94.0487 57.9681 96.0322 58.7124C97.7594 59.3605 99.0105 60.8806 99.3153 62.7012C100.395 69.151 101.657 78.5475 102.018 86.5941C102.196 90.5767 102.169 94.4975 101.698 97.6384C101.466 99.1857 101.083 100.862 100.375 102.341C99.6974 103.755 98.2964 105.842 95.6162 106.596C80.1079 110.959 60.712 111.56 38.2746 106.671C36.7441 106.337 35.4472 105.327 34.7483 103.925L39.3744 101.616C34.7483 103.925 34.7477 103.923 34.7472 103.922L34.7435 103.915L34.7376 103.903L34.7225 103.872C34.7111 103.849 34.6968 103.82 34.68 103.784C34.6462 103.714 34.602 103.62 34.5488 103.505C34.4424 103.273 34.2997 102.952 34.133 102.552C33.8006 101.754 33.3684 100.629 32.9387 99.2582C32.0893 96.5488 31.1982 92.7174 31.1982 88.4685C31.1982 84.6773 31.4557 81.7247 31.7254 79.6726C31.8603 78.6466 31.9981 77.8461 32.1082 77.2787C32.1632 76.9949 32.2113 76.7695 32.2486 76.6033C32.2673 76.5202 32.2832 76.4518 32.296 76.3985C32.3024 76.3718 32.308 76.3488 32.3128 76.3296L32.3192 76.3036L32.322 76.2927L32.3238 76.2855C32.3241 76.2843 32.3244 76.2832 37.2947 77.5503L32.3244 76.2832C33.0291 73.5148 35.8432 71.8422 38.6097 72.5475C41.368 73.2506 43.0376 76.0518 42.3492 78.8122C42.348 78.8172 42.3455 78.8278 42.3418 78.844C42.34 78.8517 42.338 78.8608 42.3356 78.8711C42.3201 78.9402 42.2927 79.0669 42.2572 79.2501C42.1861 79.6166 42.0824 80.2095 41.9756 81.0216C41.7622 82.6454 41.5367 85.147 41.5367 88.4685C41.5367 91.3325 42.1491 94.0751 42.8031 96.1614C42.9099 96.5018 43.0163 96.8204 43.1194 97.1145C62.2766 100.94 78.4956 100.357 91.3001 97.0463C91.3569 96.7956 91.4168 96.4842 91.4738 96.1039C91.7949 93.9613 91.8588 90.8321 91.6896 87.058C91.412 80.8697 90.546 73.6672 89.6632 67.8316C88.5165 67.6485 87.1206 67.4633 85.5111 67.2837C81.7063 66.8593 76.8704 66.4846 71.6329 66.2379C61.08 65.741 49.2991 65.7835 41.2089 66.8686C39.2639 67.1295 37.3389 66.2657 36.2398 64.6388C33.171 60.0963 30.9329 51.4303 34.5985 42.573C37.9857 34.3885 44.0894 27.6884 51.8581 23.7407C59.6333 19.7897 68.527 18.8784 76.9082 21.1909C85.2845 23.502 92.5364 28.862 97.3866 36.2329C98.9567 38.6189 98.2965 41.8269 95.9121 43.398C93.5277 44.9692 90.322 44.3086 88.752 41.9226C85.2379 36.5823 80.0472 32.7886 74.1602 31.1644ZM91.037 97.8977C91.0369 97.8974 91.0402 97.8906 91.0472 97.8782C91.0405 97.8918 91.037 97.898 91.037 97.8977Z" fill="#1E1E1E"/>
<ellipse cx="66.6587" cy="78.2082" rx="5.6511" ry="5.655" fill="#1E1E1E"/>
<path d="M64.7635 78.1769C65.3752 76.3619 67.9423 76.3619 68.554 78.1769L71.8274 87.8901C72.2643 89.1863 71.3001 90.5288 69.9322 90.5288H63.3853C62.0174 90.5288 61.0532 89.1863 61.49 87.8901L64.7635 78.1769Z" fill="#1E1E1E"/>
</svg>
